<?xml version="1.0" encoding="utf-8"?>
<!-- Generator: Adobe Illustrator 22.0.1, SVG Export Plug-In . SVG Version: 6.00 Build 0)  -->
<svg version="1.2" baseProfile="tiny" id="Ebene_1" xmlns="http://www.w3.org/2000/svg" xmlns:xlink="http://www.w3.org/1999/xlink"
	 x="0px" y="0px" viewBox="0 0 100 100" xml:space="preserve">
<g>
	<path d="M100,64.9H0V66h100V64.9z M58.3,56.8c4,1.1,3.6,4.7,3.6,4.7h4.9l1.7-3.6h8.7l1.7,3.6h9V48.4h4.6c1.6,0,3.2,1.5,2.9,4.6v8.6
		h4.6v-9.3c0-5.5-3-8.4-6.9-8.4h-9.9v15.3L76.3,44h-3.2l-6.7,14.6c0-2-2.5-3.3-2.5-3.3c2.3,0,4.9-10.5-3-11.2H48.3v12.6H47
		c-0.8-0.1-1.8-1.9-1.8-2.9V42.2h47.4v-4.4H15.5l2.3,4.4h22.6v12.5c0.1,3.6,3.9,6.8,7.7,6.9h4.9v-4.7H58.3z M27.3,44.1h-4.3v14.8
		h-0.2l-8.9-21.2h-2.6L0.2,61.5h1.4l2.1-4.3h13.1l1.9,4.3h13.9c3.3-0.1,6.9-4.3,6.9-8.7c0-3.6-2.7-8.7-6.9-8.7H27.3L27.3,44.1z
		 M53.1,48.5h6.8c2.8,0.1,2.9,4.3,0.1,4.4h-6.8V48.5z M73,47.8l2.4,5.9h-5L73,47.8z M27.6,48.5h3.9c1.1,0,3,1.7,3,4.4
		c0.2,2.4-1.7,3.9-2.9,3.9h-4.1V48.5z M10.8,41.9L15,52.6H5.7L10.8,41.9z"/>
</g>
</svg>
