<?xml version="1.0" encoding="utf-8"?>
<!-- Generator: Adobe Illustrator 22.0.1, SVG Export Plug-In . SVG Version: 6.00 Build 0)  -->
<svg version="1.2" baseProfile="tiny" id="Ebene_1" xmlns="http://www.w3.org/2000/svg" xmlns:xlink="http://www.w3.org/1999/xlink"
	 x="0px" y="0px" viewBox="0 0 100 100" xml:space="preserve">
<g>
	<path fill="#E20613" d="M41.2,62.1L26.6,35.2H14.7L0,62.1h11.2l9.4-19.8l6.3,13.5H14.3l3.6,6.3H41.2z M80,48.2
		c0-3.8,4.1-5.9,10.1-6.3c5.3-0.3,9.7,2.7,9.7,2.7v-7.9c0,0-5.8-1.9-10.5-1.9c-2.9,0-7.1-0.3-12.2,2.4c-4.5,2.5-6.3,6.5-6.3,6.5
		s0.2-3.4-2.2-5.6c-1.8-1.6-4.5-2.4-7.1-2.8c-2.6-0.3-4.8-0.3-4.8-0.3H37.9l3.3,6c0,0,13.7,0,14.2,0c0.5,0,2.8,0,3.5,0.3
		c0.7,0.3,1.9,1.5,1.2,3.5c-0.7,2-3.7,1.5-3.7,1.5H41.2v15.7h11.3l0.1-9.7c0,0,7.7,0.3,12.4-1.1c3.1-0.9,4.9-4.1,4.9-4.1
		s-0.5,5.5,2.1,8.8c1.2,1.5,4.9,6.5,15.6,6.5c10.1,0,12.4-2.3,12.4-2.3v-7.3c0,0-5.5,3.1-11.7,2.4C84.1,54.7,79.9,52.1,80,48.2"/>
</g>
</svg>
