<?xml version="1.0" encoding="utf-8"?>
<!-- Generator: Adobe Illustrator 22.0.1, SVG Export Plug-In . SVG Version: 6.00 Build 0)  -->
<svg version="1.2" baseProfile="tiny" id="Ebene_1" xmlns="http://www.w3.org/2000/svg" xmlns:xlink="http://www.w3.org/1999/xlink"
	 x="0px" y="0px" viewBox="0 0 100 100" xml:space="preserve">
<g>
	<path fill="#1D1D1B" d="M64.7,15.1C70.6,6.9,69.2,0,69.2,0s-9.3,0.5-15.3,8.4c-6.2,8.3-4.8,14.7-4.8,14.7S58.3,23.9,64.7,15.1
		 M87.4,34c0,0-4-6-10.3-8.2c-7.8-2.7-11.5-1.8-15.6-0.8c-4.2,1-8.7,3.6-10.9,3.7c-2.2,0.1-4.9-1.3-8.9-2.7c-4-1.4-4.9-1.6-7.6-1.7
		c-2.6-0.1-3.2,0-8.1,1.5c-5.3,1.6-11.1,6.8-14.6,14.5S8.8,59.1,10.6,67c1.7,7.9,5.9,16,10.3,22.4c4.3,6.4,8.9,9.7,12.9,10.5
		c4,0.7,8.9-2.3,12.9-3.5c3.9-1.2,8.5-0.4,11.5,0.8c3,1.2,5.2,2.9,10.4,2.7c5.2-0.2,9.2-4.3,13.9-11.1C87.8,81,90,73.4,90,73.4
		s-8.6-3.2-11.8-12.1c-4.5-12.4,1.3-19.3,3.6-22.2C83.9,36.2,87.4,34,87.4,34"/>
</g>
</svg>
