<?xml version="1.0" encoding="utf-8"?>
<!-- Generator: Adobe Illustrator 22.0.1, SVG Export Plug-In . SVG Version: 6.00 Build 0)  -->
<svg version="1.2" baseProfile="tiny" id="Ebene_1" xmlns="http://www.w3.org/2000/svg" xmlns:xlink="http://www.w3.org/1999/xlink"
	 x="0px" y="0px" viewBox="0 0 100 100" xml:space="preserve">
<g>
	<path fill="#009EE2" d="M86.2,46.5l-9.4,0c0.7-2.1,2.5-3.6,4.7-3.6C83.7,42.8,85.5,44.3,86.2,46.5 M39.9,48.6
		c0,2.8-2.3,5.1-5.1,5.1c-2.8,0-5.1-2.3-5.1-5.1c0-2.8,2.3-5.1,5.1-5.1C37.6,43.5,39.9,45.8,39.9,48.6 M14.2,48.6
		c0,2.8-2.3,5.1-5.1,5.1c-2.8,0-5.1-2.3-5.1-5.1c0-2.8,2.3-5.1,5.1-5.1C12,43.5,14.2,45.8,14.2,48.6 M100,43.4v-4.1
		c0,0-3.3-0.2-6.2,1.5c-3.1,1.9-3.2,5.9-3.2,5.9s-1.5-7.5-9-7.5c-8.1,0-9.3,7.4-9.3,7.4s-0.2-2.5-1.1-3.9c-0.9-1.4-2.5-3.2-5.6-3.5
		c-3.1-0.3-5.1,1.9-5.1,1.9v-5.8h-4.3c0,0,0,10.5,0,12.4c0,1.9-0.1,3.1-1,4.4c-0.7,1-1.7,1.7-3.3,1.6c-1.7-0.1-2.8-0.8-3.3-1.8
		c-0.5-1-0.5-3.4-0.5-3.4v-4.8h6.7v-4.1h-6.7v-4.3h-4.3l0,11.5c0,0-0.8-3.1-2.4-4.5c-0.9-0.8-2.6-2.8-6.8-3
		c-4.2-0.2-7.2,3.4-7.2,3.4v-3.3c0,0-3.7-0.2-6.5,1.7c-2.8,1.9-2.9,5.6-2.9,5.6s-0.6-4.1-4.2-6.1c-2.3-1.3-4.7-1.3-6.6-0.8
		c-1.9,0.5-3.1,1.8-3.1,1.8v-6.4H0c0,0,0,10,0,11.1c0,1.2,0,3,0,3s1,8.8,9.2,8.3c8.2-0.5,8.9-7.1,8.9-7.1v6.7h4.3c0,0-0.1-6.6,0-8.9
		c0.1-2.3,0.8-3.4,2-4.1c1.2-0.8,2.5-0.7,2.5-0.7s-3.4,5.3,0.1,10.3c2.9,4.1,7.4,4.8,11.5,3.2c4.2-1.7,5.3-6.6,5.3-6.6
		s0.1,2,0.6,3.1c1.4,2.7,3.9,4.2,6.7,4.4c2.8,0.2,5.1-2.1,5.1-2.1v1.5h4.3v-8.8c0-1.3,0.3-4.6,2.8-5c2.5-0.4,3.3,0.4,4,1.5
		c0.7,1.1,0.6,4.1,0.6,4.1v8.1h4.4v-6.8c0,0,1.2,7.1,8.7,7.3c7.6,0.2,9-6.6,9-6.6h-4.2c0,0-1.2,3.9-5.9,2.8c-2.8-0.7-3.5-4-3.5-4
		h14.1v7.3h4.3v-8.8c0-2.5,0.6-3,1.5-4C97.4,43.5,100,43.4,100,43.4"/>
</g>
</svg>
