<?xml version="1.0" encoding="utf-8"?>
<!-- Generator: Adobe Illustrator 22.0.1, SVG Export Plug-In . SVG Version: 6.00 Build 0)  -->
<svg version="1.2" baseProfile="tiny" id="Ebene_1" xmlns="http://www.w3.org/2000/svg" xmlns:xlink="http://www.w3.org/1999/xlink"
	 x="0px" y="0px" viewBox="0 0 100 100" xml:space="preserve">
<g>
	<path fill="#E20613" d="M53.6,71.7c-0.6,2.4-1.3,4.8-1.9,7.2c-0.3,1.2-0.6,2.3-1,3.5c-0.3,1.2-1.1,2.2-2.2,2.9
		c-1.3,0.8-2.2,0.7-3.6,0.7h-3.7h-7.4l7.8-29h7.4h3.7h1.9c0.3,0,0.6,0,0.9,0.1c0.3,0.1,0.6,0.2,0.8,0.4c0.5,0.4,0.7,1,0.7,1.7
		c0,0.2-0.4,1.6-0.5,1.8c-0.3,1.2-0.6,2.4-0.9,3.5C54.9,66.9,54.2,69.3,53.6,71.7 M53,14h7.4h3.7H66c0.3,0,0.6,0,0.9,0.1
		c0.3,0.1,0.6,0.2,0.8,0.4c0.5,0.4,0.7,1,0.7,1.7c0,0.2-0.4,1.6-0.4,1.8c-0.3,1.2-0.6,2.4-1,3.6c-0.6,2.4-1.3,4.8-1.9,7.2
		c-0.6,2.4-1.3,4.8-1.9,7.1c-0.3,1.2-0.6,2.4-1,3.6c-0.3,1.2-1.2,2.2-2.3,2.9C58.7,43,57.8,43,56.4,43h-3.7h-7.4L53,14z M57.1,100
		h0.4h0.2c4,0,7.8-1.2,11.1-3.5c2.1-1.5,3.7-3.3,5-5.5c0.9-1.5,1.5-3,1.9-4.6c0-0.1,0-0.1,0-0.2c0-0.1,0.1-0.3,0.1-0.4
		c2.3-8.4,4.5-16.9,6.8-25.3c0.9-6.3-2.2-9.3-6.7-10.5c5.5-0.7,10.3-4.9,12.2-10c2.2-8.2,4.4-16.4,6.6-24.6c0.3-1,0.6-2,0.8-3
		c0.2-1.1,0.3-2.1,0.2-3.2c-0.2-2.1-1-4.2-2.4-5.8c-1.4-1.6-3.3-2.8-5.4-3.2C86.9,0,85.8,0,84.8,0h-3.2H30.8L4,100h52.4H57.1z"/>
</g>
</svg>
