<?xml version="1.0" encoding="utf-8"?>
<!-- Generator: Adobe Illustrator 22.0.1, SVG Export Plug-In . SVG Version: 6.00 Build 0)  -->
<svg version="1.2" baseProfile="tiny" id="Ebene_1" xmlns="http://www.w3.org/2000/svg" xmlns:xlink="http://www.w3.org/1999/xlink"
	 x="0px" y="0px" viewBox="0 0 100 100" xml:space="preserve">
<g>
	<path fill="#E20613" d="M16.1,47.5l8.4-4.8c0,0-3.7-6-11.6-5.7C3.4,37.4-0.5,43.2-0.2,47.8C0.3,54.3,5.7,58,13.1,58
		c7.3,0,10.3-4.4,10.3-4.4l-0.4-1.2c0,0-3.2,4.5-8.4,3.5s-7-5.5-6.9-9c0-3.5,3.2-6.5,5.1-7.2c5.2-1.7,7.7,0.7,7.7,0.7L16.1,47.5z
		 M36.4,52.7c0,1.5-1.4,2.7-3,2.7c-1.7,0-2.9-1.2-3.1-2.7c-0.2-1.6,0.7-3.4,3.1-3.4C35,49.4,36.4,50.6,36.4,52.7 M44.1,57.5
		l-3.5-12.9c0,0-0.4-2.4-2.3-3.2c-1.9-0.9-3-0.7-5,0c-1.9,0.7-6.8,2.3-6.8,2.3h7.8l1.3,5.1c0,0-2.3-2.4-6.1-1.8
		c-3.7,0.5-6,4-5.1,6.5c0.8,2.5,3,4.4,6.6,4.5c3.6,0.1,6.3-3.4,6.3-3.4l0.8,2.9H44.1z M61.5,44.2c0-1,0.1-1.9-1.2-2.9
		S57.1,41,57.1,41l-4.8,2.2c0,0,0-1.2-1.4-2.1c-1.4-0.9-3-0.2-3-0.2l-6,2.8h4.3v13.8l6.1,0c0,0,0-11.3,0-11.7c0-0.4,0-0.9,0.2-1.2
		c0.2-0.3,0.7-1,1.8-0.8c1.1,0.2,1.2,1.7,1.2,1.7v12h6.1V44.2z M74.9,56.7l-0.2,0c-1.7,0.5-2.2-1.3-2.2-1.3l-3-11.3
		C69,42.4,70.7,42,70.7,42l0.2,0c1.7-0.5,2.2,1.3,2.2,1.3l3,11.3C76.6,56.3,74.9,56.7,74.9,56.7 M81.1,47c-0.7-3.4-4.3-5.9-6.8-6.2
		c-4.1-0.5-8.9,1.2-10,6.7c-1,4.9,2.1,8.3,4.2,9.3c2.4,1.2,6.9,2.2,10.6-1.6C82,52.4,81.6,49.4,81.1,47 M98.9,41.3
		c-1.2-1-3.3-0.3-3.3-0.3l-4.8,2.2c0,0,0-1.2-1.4-2.1c-1.4-0.9-3-0.2-3-0.2l-6,2.8h4.3v13.8l6.1,0c0,0,0-11.3,0-11.7
		c0-0.4,0-0.9,0.2-1.2c0.2-0.3,0.7-1,1.8-0.8c1.1,0.2,1.2,1.7,1.2,1.7v12h6.1V44.2C100,43.2,100.1,42.3,98.9,41.3"/>
</g>
</svg>
