<?xml version="1.0" encoding="utf-8"?>
<!-- Generator: Adobe Illustrator 22.0.1, SVG Export Plug-In . SVG Version: 6.00 Build 0)  -->
<svg version="1.2" baseProfile="tiny" id="Ebene_1" xmlns="http://www.w3.org/2000/svg" xmlns:xlink="http://www.w3.org/1999/xlink"
	 x="0px" y="0px" viewBox="0 0 100 100" xml:space="preserve">
<g>
	<path fill="#E20613" d="M90.9,69.1l-31.2-0.8c0,0,12.2,11.4,20.4,10.6C86.5,78.2,90.9,69.1,90.9,69.1 M40.3,68.3L9.1,69.1
		c0,0,4.3,9.1,10.7,9.7C28.2,79.7,40.3,68.3,40.3,68.3 M21.3,53.5C14.4,49.2,0.7,42.3,0.7,42.3S-2.2,52.8,4,59.7
		c3.4,3.7,8,5.9,16.6,6.4c7.5,0.4,20.3-0.4,20.3-0.4S28.2,57.7,21.3,53.5 M32.4,41.4c-5.7-9.8-9.2-14.3-12-18.4s-4.8-6.1-5.2-6.3
		c-0.4-0.2-2.1,1.5-3.1,2.7c-1,1.2-2.2,3.1-3.9,6.5c-1.8,3.4-1.5,8.5,0.3,12.5c1.8,4,11,10.2,16.7,13.8c5.7,3.5,14.4,8.3,16.4,9.2
		c0,0,0.5,0.4,1.4,0.5c0.6,0.1-0.9-2.7-1.6-4.3C40.5,56.2,38.1,51.3,32.4,41.4 M47.9,44.9c0.2-7.4,0.5-17,0-22.8
		c-0.5-5.8-2.1-10.2-3.4-14.8c-1.3-4.5-1.8-4.6-1.8-4.6s-2.8,0.1-4.7,0.7c-1.9,0.5-2.6,0.8-5.8,3.2c-3.2,2.4-4.5,5.5-4.9,10.7
		c-0.4,5.2,3,13.4,5.5,18.2c2.5,4.9,10.4,18.2,12.2,21c1.8,2.8,1.7,2.9,2.3,2.9c0.6,0,0.3-1.8,0.5-3.8
		C47.7,54.5,47.7,51.5,47.9,44.9 M67.4,35.4c2.5-4.9,5.9-13,5.5-18.2c-0.4-5.2-1.7-8.3-4.9-10.7c-3.2-2.4-3.9-2.7-5.8-3.2
		c-1.9-0.5-4.7-0.7-4.7-0.7s-0.5,0.1-1.8,4.6c-1.3,4.5-2.9,8.9-3.4,14.8c-0.5,5.8-0.2,15.4,0,22.8c0.2,6.7,0.2,9.6,0.3,10.7
		c0.2,2-0.1,3.8,0.5,3.8c0.6,0,0.5-0.2,2.3-2.9C56.9,53.6,64.9,40.2,67.4,35.4 M91.5,38.6c1.8-4,2.1-9.1,0.3-12.5
		c-1.8-3.4-3-5.3-3.9-6.5c-1-1.2-2.7-3-3.1-2.7c-0.4,0.2-2.3,2.3-5.2,6.3s-6.4,8.6-12,18.4c-5.7,9.8-8.1,14.8-8.9,16.3
		c-0.8,1.5-2.2,4.3-1.6,4.3c0.9-0.1,1.4-0.5,1.4-0.5c2-0.9,10.7-5.6,16.4-9.2C80.4,48.8,89.7,42.6,91.5,38.6 M99.3,42.3
		c0,0-13.7,6.9-20.6,11.2c-6.9,4.3-19.5,12.2-19.5,12.2s12.7,0.9,20.3,0.4c8.6-0.5,13.2-2.6,16.6-6.4
		C102.2,52.8,99.3,42.3,99.3,42.3"/>
	<path fill="#1D1D1B" d="M14.7,96.6h3.4V83.3h-3.4v5.1H8.3v-5.1H4.9v13.3h3.4v-5.9h6.4V96.6z M34.1,94.8c0.5-0.8,0.8-1.9,0.8-3.3
		v-8.2h-3.5v8.2c0,0.9-0.1,1.6-0.4,2c-0.4,0.7-1.3,1.1-2.7,1.1c-1.4,0-2.3-0.4-2.7-1.1c-0.3-0.4-0.4-1.1-0.4-2v-8.2h-3.5v8.2
		c0,1.4,0.3,2.5,0.8,3.3c1,1.4,2.9,2.2,5.8,2.2S33.1,96.2,34.1,94.8 M46.5,91.4h-4.4l2.2-5L46.5,91.4z M52.5,96.6l-6-13.3h-4
		l-6.1,13.3H40l1.2-2.7h6.3l1.1,2.7H52.5z M69.3,96.6l4.1-13.3h-3.5l-2.5,9.5l-3-9.5h-3.7l-3.1,9.4l-2.5-9.4h-3.3l3.9,13.3h4.2
		l2.1-7.8l0.6-2.6l0.6,2.6l2.1,7.8H69.3z M88,85.8l0-2.5h-6.7c-4.7,0.3-5.9,4.2-5.9,6.2c-0.1,4.1,1.8,6.8,5.5,7.1h7v-2.5L81.8,94
		c-1.1,0-1.7-0.4-2.1-0.9c-0.8-1.1-0.9-2.3-0.9-2.3H88v-2.3h-9.1c0,0,0.1-1.5,1.3-2.3c0.5-0.3,0.8-0.3,1.5-0.4L88,85.8z M95,83.3
		h-3.4v13.3H95V83.3z"/>
</g>
</svg>
