<?xml version="1.0" encoding="utf-8"?>
<!-- Generator: Adobe Illustrator 22.0.1, SVG Export Plug-In . SVG Version: 6.00 Build 0)  -->
<svg version="1.2" baseProfile="tiny" id="Ebene_1" xmlns="http://www.w3.org/2000/svg" xmlns:xlink="http://www.w3.org/1999/xlink"
	 x="0px" y="0px" viewBox="0 0 100 100" xml:space="preserve">
<g>
	<path fill="#1F70C2" d="M86,67h14v-2.7H86V67z M76.7,64.3l1,2.7l0.2,0l1-2.7H76.7z M55.6,67h13.9v-2.7H55.6V67z M22.2,64.3V67h21.2
		c3.8,0,6.6-2.7,6.6-2.7H22.2z M0.2,67h19.5v-2.7H0.2V67z M86,61.7h14v-2.7H86V61.7z M74.8,58.9l1,2.7h3.9l1-2.7H74.8z M55.6,61.7
		h13.9v-2.7H55.6V61.7z M22.2,58.9v2.7h30c0.6-0.6,1-2.7,1-2.7H22.2z M0.2,61.7h19.5v-2.7H0.2V61.7z M86,56.4h8.4v-2.7H86V56.4z
		 M72.9,53.6l1,2.7h7.8l1-2.7H72.9z M61,56.4h8.4v-2.7H61V56.4z M44.4,53.6v2.7h9c0-1.3-0.5-2.7-0.5-2.7H44.4z M27.8,56.4h8.4v-2.7
		h-8.4V56.4z M5.6,56.4H14v-2.7H5.6V56.4z M86,51h8.4v-2.7H86V51z M71,48.3l1,2.7h11.6l1-2.7H71z M61,51h8.4v-2.7H61V51z M27.8,48.3
		V51h23.9c-0.6-1.3-2.4-2.7-2.4-2.7H27.8z M5.6,51H14v-2.7H5.6V51z M61,43v2.7h8.4v-1.5l0.5,1.5h15.4l0.6-1.5v1.5h8.4V43H78.6
		l-0.8,2.3L76.9,43H61z M27.8,43v2.7h21.5c0,0,1.8-1.4,2.4-2.7H27.8z M5.6,45.7H14V43H5.6V45.7z M80.4,37.6l-1,2.7h15v-2.7H80.4z
		 M61,37.6v2.7h14.9l-1-2.7H61z M44.4,37.6v2.7h8.4c0,0,0.5-1.4,0.5-2.7H44.4z M27.8,40.4h8.4v-2.7h-8.4V40.4z M5.6,40.4H14v-2.7
		H5.6V40.4z M82.2,32.3l-0.9,2.7h18.5v-2.7H82.2z M55.4,32.3v2.7H74l-0.9-2.7H55.4z M22.2,32.3v2.7h31c0,0-0.4-2.1-1-2.7H22.2z
		 M0,35.1h19.5v-2.7H0V35.1z M84.2,27l-1,2.7h16.6V27H84.2z M55.4,27v2.7h16.8l-1-2.7H55.4z M22.2,27v2.7H50c0,0-2.8-2.7-6.6-2.7
		H22.2z M0,29.7h19.5V27H0V29.7z"/>
</g>
</svg>
