<?xml version="1.0" encoding="utf-8"?>
<!-- Generator: Adobe Illustrator 22.0.1, SVG Export Plug-In . SVG Version: 6.00 Build 0)  -->
<svg version="1.2" baseProfile="tiny" id="Ebene_1" xmlns="http://www.w3.org/2000/svg" xmlns:xlink="http://www.w3.org/1999/xlink"
	 x="0px" y="0px" viewBox="0 0 100 100" xml:space="preserve">
<g>
	<path fill="#0B2558" d="M100,27.9c-0.1-0.4-1.8-5.4-7.6-6.4c-4.1-0.7-8.8-0.8-13.9-0.3c-5.6-5.8-13.4-9.4-22.1-9.4
		c-6,0-11.6,1.7-16.3,4.7l6.8,5.9c2.7-1.3,5.8-2.1,9-2.1c4,0,7.7,1.1,10.8,3.1c-4.5,1.2-9,3-13.4,5.2c-13,6.4-19,8.4-32.9,20.7
		c-0.3-1.6-0.4-3.3-0.4-5c0-12.7,7.2-23.7,17.9-29.5L24.4,3C11.4,12.2,2.9,27.3,2.9,44.4c0,6.8,1.3,13.3,3.8,19.2
		c-5.2,6.8-6.9,12-6.6,15.5c0.4,5.2,2.3,6.3,2.3,6.3s0.7-7.1,5-13.3c0.5-0.8,1.2-1.7,2.1-2.7c4.4,7.7,10.7,14.1,18.3,18.6
		c-2,0.6-5.2,1.3-9.3,1.7C11,90.3,3.8,88.1,3.8,88.1C9.6,95.8,21.2,94,27.4,93c2.8-0.4,5.3-1,7.3-1.6c5.9,2.4,12.3,3.7,19,3.7
		c12.2,0,23.5-4.3,32.2-11.5l-12.4-11C68.1,76,61.6,78,54.7,78c-14.8,0-27.5-9-32.4-21.8c6.3-5.7,13.7-11.5,21-15.5
		C52.5,35.6,62.6,30.9,72,28c3.4,4,5.5,9.3,5.5,15.2c0,9.5-5.5,17.6-13.3,21l6.9,6.3c9.7-5.3,16.3-15.6,16.3-27.5
		c0-6.4-1.9-12.4-5.2-17.3c2.5-0.4,4.9-0.5,7.2-0.4C98.9,25.7,99.9,27.7,100,27.9 M100,28C100,28,100,27.9,100,28
		C100,27.9,100,28,100,28"/>
</g>
</svg>
