<?xml version="1.0" encoding="utf-8"?>
<!-- Generator: Adobe Illustrator 22.0.1, SVG Export Plug-In . SVG Version: 6.00 Build 0)  -->
<svg version="1.2" baseProfile="tiny" id="Ebene_1" xmlns="http://www.w3.org/2000/svg" xmlns:xlink="http://www.w3.org/1999/xlink"
	 x="0px" y="0px" viewBox="0 0 100 100" xml:space="preserve">
<g>
	<path fill="#0A6FAF" d="M36.3,31.3c0,6.5,7.6,6.5,7.6,6.5h12.4c0,0,20.9-2.3,20.9,17c0,18.9-19.7,16.6-19.7,16.6H25.3v-9.9h27.5
		c0,0,10.7,1.3,10.7-6.9c0-8.3-11.4-6.7-11.4-6.7h-10c0,0-19.6,0.9-19.6-16c0-16.9,17-16.8,17-16.8h34.2v9.8H43
		C43,24.9,36.3,24.8,36.3,31.3 M100,60V0H0v59.2c0,12.4,6.9,17.6,10.4,19.4C14,80.6,49.7,100,49.7,100s29.8-16.4,40.6-21.8
		C101.1,72.8,100,60,100,60"/>
	<path fill="none" stroke="#1D1D1B" stroke-width="2.240823e-02" d="M36.3,31.3c0,6.5,7.6,6.5,7.6,6.5h12.4c0,0,20.9-2.3,20.9,17
		c0,18.9-19.7,16.6-19.7,16.6H25.3v-9.9h27.5c0,0,10.7,1.3,10.7-6.9c0-8.3-11.4-6.7-11.4-6.7h-10c0,0-19.6,0.9-19.6-16
		c0-16.9,17-16.8,17-16.8h34.2v9.8H43C43,24.9,36.3,24.8,36.3,31.3z M100,60V0H0v59.2c0,12.4,6.9,17.6,10.4,19.4
		C14,80.6,49.7,100,49.7,100s29.8-16.4,40.6-21.8C101.1,72.8,100,60,100,60z"/>
</g>
</svg>
