<?xml version="1.0" encoding="utf-8"?>
<!-- Generator: Adobe Illustrator 22.0.1, SVG Export Plug-In . SVG Version: 6.00 Build 0)  -->
<svg version="1.2" baseProfile="tiny" id="Ebene_1" xmlns="http://www.w3.org/2000/svg" xmlns:xlink="http://www.w3.org/1999/xlink"
	 x="0px" y="0px" viewBox="0 0 100 100" xml:space="preserve">
<g>
	<path fill="#9C9B9B" d="M93.5,62.3c0,3-1.8,5.5-5,5.5c-3.2,0-4.9-2.5-4.9-5.5V46.2c0-3-2-5.1-5.1-5.1c-3,0-5.2,2-5.2,5.1v16.1
		c0,3-1.8,5.5-5,5.5c-3.2,0-4.9-2.5-4.9-5.5V46.2c0-3-2-5.1-5-5.1c-3,0-5.3,2-5.3,5.1v16.1c0,3-1.7,5.5-5,5.5
		c-3.2,0-4.9-2.5-4.9-5.5V42.6c0-0.8-0.7-1.5-1.5-1.5c-0.9,0-1.2,0.6-1.3,0.9C40.3,42.2,31,62.3,31,62.3c-1.7,3.4-3.2,5.5-6.7,5.5
		c-3.3,0-5-1.9-6.7-5.5L7,39.3c-1.1-2.4-0.2-5.2,2.3-6.3c2.5-1.1,5.2,0,6.3,2.4l8.7,20.5l6.8-15.9c2.3-5.2,6-7.3,10.8-7.3
		c3.1,0,6.7,1.7,8.9,4.5c0,0,4.7-4.5,10-4.5c5.1,0,8,1.7,10.2,4.5c0,0,4.1-4.5,10.6-4.5c6.5,0,11.9,4.7,11.9,11.4V62.3z M100,92.4
		V7.6c0,0,0-7.6-7.6-7.6H7.6C7.6,0,0,0,0,7.6v84.8c0,0,0,7.6,7.6,7.6h84.8C92.4,100,100,100,100,92.4"/>
</g>
</svg>
