<?xml version="1.0" encoding="utf-8"?>
<!-- Generator: Adobe Illustrator 22.0.1, SVG Export Plug-In . SVG Version: 6.00 Build 0)  -->
<svg version="1.2" baseProfile="tiny" id="Ebene_1" xmlns="http://www.w3.org/2000/svg" xmlns:xlink="http://www.w3.org/1999/xlink"
	 x="0px" y="0px" viewBox="0 0 100 100" xml:space="preserve">
<g>
	<path fill="#004380" d="M44.8,79.7c2.5,5.6-3.1,8-3.1,8l-0.4,0.2c-5.6,2.5-8-3.1-8-3.1L6.7,25.3c-2.5-5.6,3.1-8,3.1-8l0.4-0.2
		c5.6-2.5,8,3.1,8,3.1L44.8,79.7z M100,0L100,0L0,0v100h100V22.9L71.8,83.3c-1.8,3.3-4,4.4-4,4.4c-5.1,2.6-8-3.1-8-3.1L33.2,25.1
		c-2.5-5.5,3.1-8,3.1-8l0.4-0.2c5.6-2.5,8,3.1,8,3.1l20.9,46.8L95.2,3.5C96.4,0.9,98.3,0.1,100,0"/>
</g>
</svg>
