<?xml version="1.0" encoding="utf-8"?>
<!-- Generator: Adobe Illustrator 22.0.1, SVG Export Plug-In . SVG Version: 6.00 Build 0)  -->
<svg version="1.2" baseProfile="tiny" id="Ebene_1" xmlns="http://www.w3.org/2000/svg" xmlns:xlink="http://www.w3.org/1999/xlink"
	 x="0px" y="0px" viewBox="0 0 100 100" xml:space="preserve">
<rect x="42.9" y="64.4" fill="#E50060" width="14.3" height="14.3"/>
<g>
	<path fill="#6F6F6E" d="M7,28.9c2.1,0.9,4.3,1.7,6.7,2.5c9.5,2.7,22.2,4.3,36.3,4.3c14.1,0,26.8-1.6,36.3-4.3
		c2.4-0.8,4.6-1.6,6.7-2.5v53.3c0,0.4-0.3,1.4-2.3,2.8c-5.7,4.3-22,8.2-40.8,8.1c-12.5,0-23.9-1.6-31.8-4c-4-1.2-7.1-2.7-8.9-4.1
		C7.3,83.7,7,82.7,7,82.3V28.9z M11,23.2c-4.1-1.4-7.8-3.1-10.8-5v64.1c0.6,7.3,7.4,10.5,16,13.4c8.9,2.7,20.7,4.3,33.8,4.3
		c13.1,0,24.9-1.6,33.8-4.3c8.6-2.9,15.4-6.1,16-13.4V18.2c-3,2-6.7,3.6-10.8,5c-0.7,0.2-1.5,0.4-2.3,0.6
		c-8.5,2.8-21.9,4.9-36.7,4.9c-13.5,0-25.8-1.6-34.4-4.1c-0.8-0.2-1.5-0.5-2.3-0.8C12.6,23.6,11.7,23.5,11,23.2 M100,14.3
		c0.5-1.7-3.8-6.3-13.2-9.2C77.6,2,64.5,0,50,0C35.5,0,22.5,2,13.3,5.1C3.8,8-0.4,12.6,0,14.3c-0.2,0.8,0.6,2.1,2.3,3.6
		c2.1-1.9,5.7-4,11-5.7C22.5,9.1,35.6,7.2,50,7.2c14.4,0,27.5,2,36.7,5.1c5.3,1.7,8.8,3.8,11,5.7C99.4,16.4,100.2,15.1,100,14.3"/>
</g>
</svg>
