<?xml version="1.0" encoding="utf-8"?>
<!-- Generator: Adobe Illustrator 22.0.1, SVG Export Plug-In . SVG Version: 6.00 Build 0)  -->
<svg version="1.2" baseProfile="tiny" id="Ebene_1" xmlns="http://www.w3.org/2000/svg" xmlns:xlink="http://www.w3.org/1999/xlink"
	 x="0px" y="0px" viewBox="0 0 100 100" xml:space="preserve">
<path fill="#6F6F6E" d="M35.7,71.4h28.6v7.1H35.7V71.4z M7.1,35.7h7.1v35.7h14.3v14.3h35.7v7.1H7.1V35.7z M21.4,35.7h7.1v28.6h-7.1
	V35.7z M35.7,35.7h28.6v28.6H35.7V35.7z M35.7,21.4h42.9v42.9h-7.1V28.6H35.7V21.4z M71.4,71.4h14.3v-50h7.1v57.1H71.4V71.4z
	 M21.4,7.1h57.1v7.1h-50v14.3h-7.1V7.1z M14.3,0v28.6H0V100h71.4V85.7H100V14.3H85.7V0H14.3z"/>
</svg>
