<?xml version="1.0" encoding="utf-8"?>
<!-- Generator: Adobe Illustrator 22.1.0, SVG Export Plug-In . SVG Version: 6.00 Build 0)  -->
<svg version="1.1" id="Ebene_1" xmlns="http://www.w3.org/2000/svg" xmlns:xlink="http://www.w3.org/1999/xlink" x="0px" y="0px"
	 viewBox="0 0 100 100" style="enable-background:new 0 0 100 100;" xml:space="preserve">
<style type="text/css">
	.st0{fill:#6F6F6E;}
</style>
<g>
	<path class="st0" d="M68.6,17c6.6-6.6,6.9-17,6.9-17s-10.4,0.3-17,6.9s-6.9,17-6.9,17S62,23.6,68.6,17 M88.6,38
		c-4.7-8.1-13.1-10.5-19.4-10.5c-9.2,0-12.2,7.3-17.8,7.3H51c-5.7,0-8.6-7.3-17.8-7.3s-23.1,4.9-23.1,26.1S23.4,100,34.4,100
		s9.7-4.9,16.8-4.9S57.1,100,68,100c6.3,0,13.5-8.5,18.4-19.7c-8.1-2-14.1-10.6-14.1-21C72.2,48,79.4,38.8,88.6,38"/>
</g>
</svg>
