<?xml version="1.0" encoding="utf-8"?>
<!-- Generator: Adobe Illustrator 22.0.1, SVG Export Plug-In . SVG Version: 6.00 Build 0)  -->
<svg version="1.2" baseProfile="tiny" id="Ebene_1" xmlns="http://www.w3.org/2000/svg" xmlns:xlink="http://www.w3.org/1999/xlink"
	 x="0px" y="0px" viewBox="0 0 100 100" xml:space="preserve">
<g>
	<path fill="#6F6F6E" d="M85.7,92.9H14.3v7.1h71.4V92.9z M57.1,39.3h7.1v-7.1h-7.1V39.3z M35.7,39.3h7.1v-7.1h-7.1V39.3z M87.8,49.9
		c1-3.4,1.5-6.9,1.5-10.6C89.3,17.6,71.7,0,50,0S10.7,17.6,10.7,39.3c0,3.7,0.5,7.2,1.5,10.6C4.6,55.2,0,62.1,0,69.6
		C0,76.5,3.9,82.9,10.5,88c2.6-14.9,12.2-32,12.2-32s-11.1-8.8-0.9-29.5s28,0,28,0h0.8c0,0,17.8-20.6,28,0s-0.9,29.5-0.9,29.5
		S87.1,73,89.7,87.8c6.4-5.1,10.2-11.4,10.2-18.2C100,62.1,95.4,55.2,87.8,49.9"/>
	<path fill="#E50060" d="M71.4,57.1c0,4-21.4,7.1-21.4,7.1s-21.4-3.2-21.4-7.1C28.6,53.2,50,50,50,50S71.4,53.2,71.4,57.1"/>
</g>
</svg>
