<?xml version="1.0" encoding="utf-8"?>
<!-- Generator: Adobe Illustrator 22.0.1, SVG Export Plug-In . SVG Version: 6.00 Build 0)  -->
<svg version="1.2" baseProfile="tiny" id="Ebene_1" xmlns="http://www.w3.org/2000/svg" xmlns:xlink="http://www.w3.org/1999/xlink"
	 x="0px" y="0px" viewBox="0 0 100 100" xml:space="preserve">
<g>
	<path fill="#6F6F6E" d="M92.7,62.9V37.1c0,0,0-5.2-5.2-5.2h-1.2c0,0-5.2,0-5.2,5.2v25.8c0,0,0,5.2,5.2,5.2h1.2
		C87.5,68.1,92.7,68.1,92.7,62.9"/>
	<path fill="#6F6F6E" d="M77.2,73.8V31.9H22.5v41.9c0,0,0,6.4,6.5,6.4H33v14.6c0,0,0,5.2,5.2,5.2h1.2c0,0,5.2,0,5.2-5.2V80.3h10.6
		v14.6c0,0,0,5.2,5.2,5.2h1.2c0,0,5.2,0,5.2-5.2V80.3h3.9C70.7,80.3,77.2,80.3,77.2,73.8"/>
	<path fill="#6F6F6E" d="M22.7,27.7H77c0-8.3-5.5-15.5-13.7-19.3l3.6-5.5c0,0,1.5-2.2,0.7-2.7L67.4,0c0,0-0.8-0.5-2.2,1.7l-3.8,5.8
		C57.9,6.2,54,5.4,49.9,5.4c-4.2,0-8.1,0.8-11.6,2.1l-3.8-5.8C33-0.4,32.2,0,32.2,0L32,0.2c-0.8,0.5,0.7,2.7,0.7,2.7l3.6,5.5
		C28.2,12.2,22.7,19.4,22.7,27.7"/>
	<path fill="#FFFFFF" d="M58.5,17.2c0-1.6,1.3-2.9,3-2.9c1.6,0,3,1.3,3,2.9c0,1.6-1.3,3-3,3C59.9,20.2,58.5,18.8,58.5,17.2"/>
	<path fill="#FFFFFF" d="M35.2,17.2c0-1.6,1.3-2.9,3-2.9c1.6,0,3,1.3,3,2.9c0,1.6-1.3,3-3,3C36.6,20.2,35.2,18.8,35.2,17.2"/>
	<path fill="#6F6F6E" d="M18.6,62.9V37.1c0,0,0-5.2-5.2-5.2h-1.2c0,0-5.2,0-5.2,5.2v25.8c0,0,0,5.2,5.2,5.2h1.2
		C13.4,68.1,18.6,68.1,18.6,62.9"/>
</g>
</svg>
