<?xml version="1.0" encoding="utf-8"?>
<!-- Generator: Adobe Illustrator 22.0.1, SVG Export Plug-In . SVG Version: 6.00 Build 0)  -->
<svg version="1.2" baseProfile="tiny" id="Ebene_1" xmlns="http://www.w3.org/2000/svg" xmlns:xlink="http://www.w3.org/1999/xlink"
	 x="0px" y="0px" viewBox="0 0 100 100" xml:space="preserve">
<g>
	<path fill="#6F6F6E" d="M51.3,55.5l-9.6,38.5c5.8,4.5,12.5,5.9,18.6,5.9c9.9,0,18.2-3.8,18.2-3.8l9.3-36.4
		c-4.1,0.8-9.1,1.5-14.6,1.5C66.1,61.4,58,60,51.3,55.5 M23.6,44.7L23.6,44.7c-5.2,0-9.8,0.6-13.3,1.2L0,86c0,0,7.1-2.7,16.1-2.7
		c6.2,0,13.3,1.3,19.5,5.7l9.5-38.2C39.3,46.3,31.3,44.7,23.6,44.7 M62.6,10.2L53.2,48c5.3,4.6,12.6,6.3,20.1,6.3h0.1h0.1
		c6.4,0,12.4-1.1,16.4-2.1L100,12.9c0,0-8.3,3.8-18.2,3.8C75.5,16.6,68.5,15.1,62.6,10.2 M37.5,0c-9,0-16.1,2.7-16.1,2.7l-9.2,35.7
		c3.3-0.5,7.1-0.8,11.3-0.8c7.6,0,16.2,1.3,23.5,5.7l9.5-38C50.3,1.2,43.5,0,37.5,0 M56.1,65.8c5.1,1.8,10.9,2.7,17.3,2.7
		c1.6,0,3.3-0.1,5-0.2l-5.8,22.5c-2.8,0.9-7.3,2-12.2,2c-3.9,0-7.4-0.7-10.4-2.1L56.1,65.8z M23.6,51.8c5.1,0,9.7,0.8,13.3,2.4
		l-6.1,24.4c-4.5-1.6-9.4-2.4-14.8-2.4c-2.2,0-4.3,0.1-6.3,0.4L16,52.3C18.6,52,21.2,51.8,23.6,51.8L23.6,51.8z M67.2,21.2
		c4.4,1.7,9.3,2.6,14.6,2.6c2.9,0,5.7-0.3,8.2-0.7l-5.9,23c-3.7,0.7-7.4,1-10.8,1c-3.5,0-8.1-0.4-12-2.3L67.2,21.2z M37.5,7.1
		c4,0,7.5,0.6,10.7,1.9l-6,24.2c-5.5-1.9-11.7-2.8-18.6-2.8c-0.6,0-1.2,0-1.9,0l5.6-22C29.8,7.8,33.4,7.1,37.5,7.1"/>
</g>
</svg>
