<?xml version="1.0" encoding="utf-8"?>
<!-- Generator: Adobe Illustrator 22.0.1, SVG Export Plug-In . SVG Version: 6.00 Build 0)  -->
<svg version="1.2" baseProfile="tiny" id="Ebene_1" xmlns="http://www.w3.org/2000/svg" xmlns:xlink="http://www.w3.org/1999/xlink"
	 x="0px" y="0px" viewBox="0 0 100 100" xml:space="preserve">
<path fill="#6F6F6E" d="M66.3,81.6l-3.1,6.1h7.1l3.1-6.1H66.3z M23.5,81.6l-3.1,6.1h7.1l3.1-6.1H23.5z M37.8,81.6l-3.1,6.1h7.1
	l3.1-6.1H37.8z M52,81.6l-3.1,6.1h7.1l3.1-6.1H52z M29.7,69.4l-3.1,6.1h7.1l3.1-6.1H29.7z M43.9,69.4l-3.1,6.1H48l3.1-6.1H43.9z
	 M58.2,69.4l-3.1,6.1h7.1l3.1-6.1H58.2z M72.4,69.4l-3.1,6.1h7.1l3.1-6.1H72.4z M25.7,63.3h64.1L74.3,93.9H10.2L25.7,63.3z
	 M28.6,7.1h64.3v50H28.6V7.1z M21.4,0v7.1v50L0,100h78.4L100,57.1V0H21.4z"/>
</svg>
