<?xml version="1.0" encoding="utf-8"?>
<!-- Generator: Adobe Illustrator 22.0.1, SVG Export Plug-In . SVG Version: 6.00 Build 0)  -->
<svg version="1.2" baseProfile="tiny" id="Ebene_1" xmlns="http://www.w3.org/2000/svg" xmlns:xlink="http://www.w3.org/1999/xlink"
	 x="0px" y="0px" viewBox="0 0 100 100" xml:space="preserve">
<g>
	<path fill="#E50060" d="M82.1,14.2C75,8.7,77.2,0,77.2,0c-8.8,9.9-13.7,19.9-11.3,27.1c1.9,5.8-6.8,17.3-10.2,21.6
		c0-19.3-19.6-25.6-19.6-25.6s4.7,4.4-1.7,15.1c-2.6,4.3-2.2,8.4-0.9,11.9h5.2c-0.2-3.9,1.1-8,6.1-10.5c0,0,4.1,3.9,4.5,10.5h5.4
		h1.1h11.7c6.1-7.9,12.6-18.8,8.2-24.9c0,0,22.7,11.6,9.1,24.9h11.6C108.3,31.4,87.9,18.7,82.1,14.2"/>
</g>
<path fill="#6F6F6E" d="M7.1,78.6h28.6v14.3H7.1V78.6z M42.8,78.6h28.6v14.3H42.8V78.6z M78.6,78.6h14.3v14.3H78.6V78.6z M7.1,57.2
	h14.3v14.3H7.1V57.2z M57.1,57.2v14.3H28.6V57.2 M64.3,57.2h28.6v14.3H64.3V57.2z M100,92.9V78.6v-7.1V57.2V50H0v7.1v21.4v14.3v7.1
	h100"/>
</svg>
