<?xml version="1.0" encoding="utf-8"?>
<!-- Generator: Adobe Illustrator 22.0.1, SVG Export Plug-In . SVG Version: 6.00 Build 0)  -->
<svg version="1.2" baseProfile="tiny" id="Ebene_1" xmlns="http://www.w3.org/2000/svg" xmlns:xlink="http://www.w3.org/1999/xlink"
	 x="0px" y="0px" viewBox="0 0 100 100" xml:space="preserve">
<g>
	<path fill="#6F6F6E" d="M64.3,74.7v8C76.9,77.2,85.7,64.6,85.7,50c0-19.7-16-35.7-35.7-35.7S14.3,30.3,14.3,50
		c0,14.6,8.8,27.2,21.4,32.7v-8C27.2,69.8,21.4,60.6,21.4,50c0-15.8,12.8-28.6,28.6-28.6S78.6,34.2,78.6,50
		C78.6,60.6,72.8,69.8,64.3,74.7 M57.1,64.3H42.9V100h14.3V64.3z M35.7,50c0-7.9,6.4-14.3,14.3-14.3S64.3,42.1,64.3,50v15.9
		c4.4-3.9,7.1-9.6,7.1-15.9c0-11.8-9.6-21.4-21.4-21.4S28.6,38.2,28.6,50c0,6.3,2.8,12,7.1,15.9V50z M100,50c0-27.6-22.4-50-50-50
		C22.4,0,0,22.4,0,50c0,22.7,15.1,41.8,35.7,47.9v-7.5C19.1,84.5,7.1,68.7,7.1,50C7.1,26.3,26.3,7.1,50,7.1S92.9,26.3,92.9,50
		c0,18.7-11.9,34.5-28.6,40.4v7.5C84.9,91.8,100,72.7,100,50"/>
	<path fill="#E50060" d="M57.1,50c0,3.9-3.2,7.1-7.1,7.1c-3.9,0-7.1-3.2-7.1-7.1s3.2-7.1,7.1-7.1C53.9,42.9,57.1,46.1,57.1,50"/>
</g>
</svg>
