<?xml version="1.0" encoding="utf-8"?>
<!-- Generator: Adobe Illustrator 22.0.1, SVG Export Plug-In . SVG Version: 6.00 Build 0)  -->
<svg version="1.2" baseProfile="tiny" id="Ebene_1" xmlns="http://www.w3.org/2000/svg" xmlns:xlink="http://www.w3.org/1999/xlink"
	 x="0px" y="0px" viewBox="0 0 100 100" xml:space="preserve">
<g>
	<path fill="#6F6F6E" d="M42.9,39.3c0-7.9-6.4-14.3-14.3-14.3s-14.3,6.4-14.3,14.3c0,7.9,6.4,14.3,14.3,14.3S42.9,47.2,42.9,39.3
		 M92.9,39.3c0,17.7-19.2,32.1-42.8,32.1c-7.1,0-13.9-1.3-19.8-3.6c15-0.9,26.9-13.3,26.9-28.5c0-15.1-11.8-27.5-26.6-28.5
		C36.4,8.5,43,7.3,50.1,7.3C73.7,7.3,92.9,21.6,92.9,39.3 M28.6,17.9c11.8,0,21.4,9.6,21.4,21.4c0,11.8-9.6,21.4-21.4,21.4
		S7.2,51.1,7.2,39.3C7.2,27.5,16.8,17.9,28.6,17.9 M50.1,79c16.8,0,31.4,5.6,38.4,13.8H11.6C18.7,84.6,33.2,79,50.1,79 M100,39.2
		C100,17.6,77.6,0,50,0S0,17.6,0,39.2c0,15.5,11.5,29,28.2,35.3C12.6,79.2,1.5,88.7,0,100h6v0h88.8v0h5.2
		c-1.5-11.2-12.6-20.8-28.2-25.5C88.5,68.2,100,54.7,100,39.2"/>
</g>
<rect x="64.3" y="28.6" fill="#E50060" width="14.3" height="14.3"/>
</svg>
