<?xml version="1.0" encoding="utf-8"?>
<!-- Generator: Adobe Illustrator 22.0.1, SVG Export Plug-In . SVG Version: 6.00 Build 0)  -->
<svg version="1.2" baseProfile="tiny" id="Ebene_1" xmlns="http://www.w3.org/2000/svg" xmlns:xlink="http://www.w3.org/1999/xlink"
	 x="0px" y="0px" viewBox="0 0 100 100" xml:space="preserve">
<rect x="14.3" y="78.6" fill="#E50060" width="21.4" height="7.1"/>
<rect x="42.9" y="42.9" fill="#E50060" width="21.4" height="7.1"/>
<path fill="#6F6F6E" d="M42.9,85.7h14.3v-7.1H42.9V85.7z M7.1,71.4h57.1v21.4H7.1V71.4z M0,64.3v6v1.1v21.4v7.1h71.4v-7.1V71.4v-1.7
	v-5.4H0z M71.4,50h14.3v-7.1H71.4V50z M28.6,28.6v7.1V50h7.1V35.7h57.1v21.4h-7.1v7.1H100V28.6H28.6z M0,0v7.1v21.4v7.1h7.1v-7.1
	V7.1h57.1v7.1v7.1h7.1v-7.1V7.1V0H0z"/>
</svg>
