<?xml version="1.0" encoding="utf-8"?>
<!-- Generator: Adobe Illustrator 22.0.1, SVG Export Plug-In . SVG Version: 6.00 Build 0)  -->
<svg version="1.2" baseProfile="tiny" id="Ebene_1" xmlns="http://www.w3.org/2000/svg" xmlns:xlink="http://www.w3.org/1999/xlink"
	 x="0px" y="0px" viewBox="0 0 100 100" xml:space="preserve">
<g>
	<path fill="#6F6F6E" d="M35.7,56.3c0,7.9,6.4,14.3,14.3,14.3s14.3-6.4,14.3-14.3S57.9,42,50,42S35.7,48.4,35.7,56.3 M81.8,59.9
		l11,7.4v17.6H64.4C73.8,80.1,80.6,70.8,81.8,59.9 M78.7,42C73.5,31.5,62.6,24.2,50,24.2c-12.6,0-23.4,7.2-28.7,17.8H7.1V27.7
		c0-5,16.3-14.3,42.9-14.3c26.6,0,42.9,9.2,42.9,14.3V42H78.7z M24.9,56.2c0-13.9,11.2-25.1,25.1-25.1c13.9,0,25.1,11.2,25.1,25.1
		c0,13.9-11.2,25.1-25.1,25.1C36.1,81.4,24.9,70.1,24.9,56.2 M35.6,84.9H7.1V67.2l11-7.4C19.4,70.8,26.2,80.1,35.6,84.9 M81.6,51.2
		c-0.1-0.7-0.2-1.4-0.4-2H100V27.7c0-11.8-22.5-21.4-50-21.4c-27.5,0-50,9.6-50,21.4v21.4h18.8c-0.2,0.7-0.3,1.4-0.4,2L0,63.4V92
		h100V63.4L81.6,51.2z"/>
</g>
</svg>
