<?xml version="1.0" encoding="utf-8"?>
<!-- Generator: Adobe Illustrator 22.0.1, SVG Export Plug-In . SVG Version: 6.00 Build 0)  -->
<svg version="1.2" baseProfile="tiny" id="Ebene_1" xmlns="http://www.w3.org/2000/svg" xmlns:xlink="http://www.w3.org/1999/xlink"
	 x="0px" y="0px" viewBox="0 0 100 100" xml:space="preserve">
<path fill="#6F6F6E" d="M14.3,71.4h7.1v-7.1h-7.1V71.4z M28.6,71.4h7.1v-7.1h-7.1V71.4z M14.3,57.1h7.1V50h-7.1V57.1z M28.6,57.1
	h7.1V50h-7.1V57.1z M64.3,71.4h7.1V28.6h-7.1V71.4z M7.1,42.9h35.7v50H7.1V42.9z M21.4,21.4v14.3H7.1H0v7.1v50v7.1h50v-7.1v-50v-7.1
	H28.6V21.4H21.4z M78.6,85.7h7.1V14.3h-7.1V85.7z M92.9,100h7.1V0h-7.1V100z"/>
</svg>
