<?xml version="1.0" encoding="utf-8"?>
<!-- Generator: Adobe Illustrator 22.0.1, SVG Export Plug-In . SVG Version: 6.00 Build 0)  -->
<svg version="1.2" baseProfile="tiny" id="Ebene_1" xmlns="http://www.w3.org/2000/svg" xmlns:xlink="http://www.w3.org/1999/xlink"
	 x="0px" y="0px" viewBox="0 0 100 100" xml:space="preserve">
<g>
	<path fill="#6F6F6E" d="M82.6,35.7C77,22.9,64.3,14.3,50,14.3s-27,8.6-32.6,21.4H7.1V21.4c0-5,16.3-14.3,42.9-14.3
		s42.9,9.3,42.9,14.3v14.3H82.6z M77.6,42.9H100V21.4C100,9.6,77.5,0,50,0S0,9.6,0,21.4v21.4h22.4C25.6,30.6,36.7,21.4,50,21.4
		S74.4,30.6,77.6,42.9 M78.6,71.4H64.3v14.3h14.3V71.4z M57.1,71.4H42.9v14.3h14.3V71.4z M92.9,92.9H7.1V57.1h85.7V92.9z M100,100
		v-3.6v-3.6V57.1v-2.8V50H0v4.3v2.8v35.7v3.6v3.6H100z"/>
</g>
<rect x="14.3" y="71.4" fill="#E50060" width="21.4" height="14.3"/>
</svg>
