<?xml version="1.0" encoding="utf-8"?>
<!-- Generator: Adobe Illustrator 22.0.1, SVG Export Plug-In . SVG Version: 6.00 Build 0)  -->
<svg version="1.2" baseProfile="tiny" id="Ebene_1" xmlns="http://www.w3.org/2000/svg" xmlns:xlink="http://www.w3.org/1999/xlink"
	 x="0px" y="0px" viewBox="0 0 100 100" xml:space="preserve">
<path fill="#6F6F6E" d="M85.7,64.3l-7.1,14.3v7.1h7.1v7.1H14.3V78.6H7.1v14.3v7.1h78.6h7.1V85.7h7.1v-7.1l-7.1-14.3H85.7z M7.1,57.1
	h7.1v7.1H7.1V57.1z M0,71.4h21.4V50H0V71.4z M85.7,35.7h7.1v7.1h-7.1V35.7z M78.6,50H100V28.6H78.6V50z M7.1,0v7.1v7.1H0v7.1
	l7.1,14.3h7.2l7.1-14.3v-7.1h-7.1V7.1h71.4v14.3h7.1V0H7.1z"/>
<polygon fill="#E50060" points="67,28.3 72,33.3 55.3,50 71.9,66.6 66.9,71.6 50.3,55 33.6,71.7 28.6,66.7 45.2,50 28.6,33.4 
	33.6,28.3 50.3,45 "/>
</svg>
