<?xml version="1.0" encoding="utf-8"?>
<!-- Generator: Adobe Illustrator 22.0.1, SVG Export Plug-In . SVG Version: 6.00 Build 0)  -->
<svg version="1.2" baseProfile="tiny" id="Ebene_1" xmlns="http://www.w3.org/2000/svg" xmlns:xlink="http://www.w3.org/1999/xlink"
	 x="0px" y="0px" viewBox="0 0 100 100" xml:space="preserve">
<path fill="#6F6F6E" d="M62.8,50L50,62.8L37.2,50H14.3v7.1l19.9,0L45,67.9L34.2,78.6H14.3v7.1h22.9L50,73l12.8,12.8h22.9v-7.1H65.8
	L55,67.9l10.7-10.7h19.9V50H62.8z M14.3,28.6h14.3V14.3H14.3V28.6z M42.9,28.6h14.3V14.3H42.9V28.6z M71.4,28.6h14.3V14.3H71.4V28.6
	z M7.1,7.1h85.7v85.7H7.1V7.1z M0,0v3.6v3.6v85.7v5.3v1.9h100V0H0z"/>
</svg>
